<?xml version="1.0" encoding="UTF-8"?>
<svg version="1.1" xmlns="http://www.w3.org/2000/svg" width="512" height="512">
<path d="M0 0 C1.43468433 -0.02105749 2.86993121 -0.01418335 4.3044939 0.01396656 C5.09518278 0.00969444 5.88587166 0.00542231 6.70052081 0.00102073 C9.3589431 -0.0072374 12.01579933 0.02032081 14.67407703 0.04761219 C16.57597281 0.04902206 18.47787132 0.04823188 20.37976551 0.04539967 C25.55114758 0.04396171 30.72195292 0.07341295 35.89320064 0.10826945 C41.2943985 0.13946977 46.69560875 0.1424587 52.09688282 0.14839649 C62.32858376 0.16395354 72.56001842 0.20500727 82.79160196 0.25514394 C94.4383289 0.31097946 106.08506839 0.33850934 117.7318958 0.36362112 C141.69364631 0.41592143 165.65516025 0.50389993 189.61670399 0.61523914 C187.5115389 4.21482536 185.33992399 7.18784566 182.49170399 10.24023914 C179.24582524 13.78024282 176.13380147 17.37827279 173.11670399 21.11523914 C169.50637956 25.57800128 165.7324247 29.84243447 161.86670399 34.08398914 C159.53808346 36.70368724 157.32107452 39.39039224 155.11670399 42.11523914 C151.50637956 46.57800128 147.7324247 50.84243447 143.86670399 55.08398914 C141.53808346 57.70368724 139.32107452 60.39039224 137.11670399 63.11523914 C133.50637956 67.57800128 129.7324247 71.84243447 125.86670399 76.08398914 C123.53808346 78.70368724 121.32107452 81.39039224 119.11670399 84.11523914 C115.50637956 88.57800128 111.7324247 92.84243447 107.86670399 97.08398914 C105.53808346 99.70368724 103.32107452 102.39039224 101.11670399 105.11523914 C97.50637956 109.57800128 93.7324247 113.84243447 89.86670399 118.08398914 C86.74978577 121.59052214 83.82355872 125.24090663 80.87451649 128.88867664 C78.01282086 132.34449593 75.00568327 135.64856029 71.95264149 138.93555164 C68.67754748 142.69259928 65.67666972 146.68099749 62.61670399 150.61523914 C104.52670399 150.61523914 146.43670399 150.61523914 189.61670399 150.61523914 C185.67336793 155.87302056 181.75617545 160.89372322 177.42920399 165.80273914 C176.28145262 167.11600316 175.13432765 168.42981487 173.98779774 169.74414539 C173.4204491 170.39399403 172.85310047 171.04384266 172.26855946 171.71338367 C169.81805797 174.53475621 167.4012863 177.38390465 164.99170399 180.24023914 C164.54609119 180.76835194 164.1004784 181.29646473 163.64136219 181.84058094 C162.74715457 182.90100178 161.85319159 183.96162895 160.95947742 185.02246571 C158.6824896 187.72338726 156.39924605 190.41901158 154.11670399 193.11523914 C153.20000815 194.19854779 152.28334146 195.28188111 151.36670399 196.36523914 C83.30420399 276.80273914 83.30420399 276.80273914 -19.13329601 397.86523914 C-19.58736828 398.40189198 -20.04144054 398.93854481 -20.50927258 399.49145985 C-21.42259642 400.57079831 -22.33600737 401.65006308 -23.24950695 402.72925282 C-25.59305184 405.49809841 -27.93489994 408.26835174 -30.27392101 411.04102039 C-35.25776229 416.94576132 -40.26147492 422.82915456 -45.38329601 428.61523914 C-46.84466896 425.69249326 -45.80124883 424.20526269 -44.79467297 421.12988758 C-44.41791927 419.96633747 -44.04116558 418.80278736 -43.65299511 417.60397816 C-43.22597231 416.31081835 -42.79882912 415.01769829 -42.37157726 413.72461414 C-41.93119523 412.373524 -41.49149789 411.02221051 -41.05243969 409.67068958 C-40.1059751 406.76193811 -39.15490637 403.85474784 -38.20025158 400.9486742 C-36.6834097 396.33097417 -35.17673712 391.70999793 -33.67187023 387.08838367 C-31.8568055 381.51602374 -30.03962771 375.94436302 -28.21956539 370.37363338 C-23.65327483 356.39563247 -19.13547349 342.4021179 -14.62567425 328.40580845 C-13.80317724 325.8538072 -12.97994302 323.30204405 -12.15669155 320.7502861 C-5.8450523 301.18599924 0.43179666 281.61065984 6.68262196 262.02686024 C6.99528507 261.04787266 7.30794819 260.06888508 7.63008595 259.06023121 C8.20318197 257.26556528 8.7758095 255.47074963 9.34782887 253.67574024 C9.60421635 252.87291111 9.86060383 252.07008198 10.12476063 251.24292469 C10.34201298 250.56167027 10.55926533 249.88041584 10.78310108 249.17851734 C12.03894921 245.31686077 13.33258772 241.46758796 14.61670399 237.61523914 C-26.63329601 237.28523914 -67.88329601 236.95523914 -110.38329601 236.61523914 C-108.88136061 232.10943293 -107.24392905 227.91953619 -105.25048351 223.63867664 C-104.9420602 222.96900867 -104.63363689 222.29934071 -104.31586742 221.60937977 C-103.64893328 220.16144386 -102.98072264 218.71409537 -102.31136608 217.26727772 C-100.48783595 213.32428421 -98.67508618 209.37635322 -96.86376476 205.42773914 C-96.48921658 204.61130939 -96.11466839 203.79487965 -95.72877026 202.9537096 C-92.26794057 195.39354656 -88.89697764 187.79501661 -85.54058361 180.18805408 C-79.08049655 165.54765664 -72.42586732 151.00732169 -65.66585827 136.50311756 C-60.11716572 124.59210441 -54.68349641 112.63881717 -49.38329601 100.61523914 C-43.31296775 86.84461537 -37.04217786 73.17634701 -30.68114758 59.53772449 C-24.07006873 45.35696037 -17.64663367 31.10129331 -11.36962414 16.76953602 C-11.05432751 16.05271656 -10.73903088 15.3358971 -10.4141798 14.59735584 C-9.83236793 13.2741474 -9.25327386 11.94973873 -8.67760754 10.6238451 C-7.93783585 8.94308338 -7.16171514 7.27845463 -6.38329601 5.61523914 C-6.01575805 4.73619325 -5.64822008 3.85714735 -5.2695446 2.9514637 C-3.38329601 0.61523914 -3.38329601 0.61523914 0 0 Z " fill="#000000" transform="translate(216.38329601287842,41.38476085662842)"/>
</svg>
